<?xml version="1.0" standalone="no"?>
<!DOCTYPE svg PUBLIC "-//W3C//DTD SVG 20010904//EN"
 "http://www.w3.org/TR/2001/REC-SVG-20010904/DTD/svg10.dtd">
<svg version="1.0" xmlns="http://www.w3.org/2000/svg"
 width="200.000000pt" height="200.000000pt" viewBox="0 0 200.000000 200.000000"
 preserveAspectRatio="xMidYMid meet">

<g transform="translate(0.000000,200.000000) scale(0.100000,-0.100000)"
fill="#000000" stroke="none">
<path d="M870 1245 c-16 -19 -6 -45 18 -45 29 0 48 26 32 45 -16 19 -34 19
-50 0z"/>
<path d="M1130 1245 c-10 -12 -10 -18 0 -30 17 -21 54 -15 58 9 7 32 -36 48
-58 21z"/>
<path d="M763 1211 c4 -36 3 -39 -13 -29 -67 42 -125 -88 -65 -147 28 -29 47
-31 69 -10 9 9 17 11 21 5 3 -5 17 -10 31 -10 l24 0 0 115 0 115 -36 0 -37 0
6 -39z m5 -107 c2 -21 -2 -33 -12 -37 -21 -8 -39 19 -32 49 10 36 40 28 44
-12z"/>
<path d="M1770 1135 l0 -115 35 0 35 0 0 115 0 115 -35 0 -35 0 0 -115z"/>
<path d="M17 1223 c-14 -13 -6 -23 18 -23 24 0 24 -2 27 -87 3 -80 5 -88 23
-88 18 0 20 8 25 85 5 79 7 85 28 88 12 2 22 10 22 18 0 11 -16 14 -68 14 -38
0 -72 -3 -75 -7z"/>
<path d="M1196 1205 c-3 -9 -18 -15 -36 -15 l-30 0 0 -85 0 -85 30 0 c24 0 30
4 30 23 1 21 1 21 12 2 19 -33 41 -44 83 -44 42 0 64 11 83 44 11 19 11 19 12
-2 0 -19 6 -23 30 -23 29 0 30 1 30 48 0 55 11 77 34 69 12 -5 16 -20 16 -62
0 -54 0 -55 30 -55 l30 0 0 68 c0 54 -4 72 -18 85 -21 19 -54 22 -83 7 -13 -7
-19 -7 -19 0 0 5 -11 10 -25 10 -13 0 -28 8 -34 17 -8 14 -14 16 -38 7 -24 -8
-28 -14 -25 -42 3 -29 1 -32 -23 -32 -24 0 -27 3 -23 29 3 20 -1 32 -14 40
-25 15 -45 14 -52 -4z m7 -80 c-7 -21 -13 -19 -13 6 0 11 4 18 10 14 5 -3 7
-12 3 -20z m177 3 c0 -19 -2 -20 -10 -8 -13 19 -13 30 0 30 6 0 10 -10 10 -22z
m-82 -37 c11 -31 -2 -47 -27 -32 -9 6 -9 14 0 34 7 15 13 27 15 27 1 0 7 -13
12 -29z"/>
<path d="M501 1181 c-8 -5 -11 -16 -7 -26 5 -13 14 -16 36 -12 16 4 32 3 34
-2 3 -5 -10 -11 -30 -14 -47 -8 -64 -23 -64 -58 0 -20 8 -34 26 -46 25 -16 28
-16 55 0 16 9 29 12 29 7 0 -6 11 -10 25 -10 24 0 25 2 25 68 0 54 -4 72 -18
85 -20 18 -87 23 -111 8z m69 -101 c0 -12 -28 -25 -36 -17 -9 9 6 27 22 27 8
0 14 -5 14 -10z"/>
<path d="M860 1105 l0 -85 30 0 30 0 0 85 0 85 -30 0 -30 0 0 -85z"/>
<path d="M981 1171 c-66 -66 -5 -179 83 -154 23 6 32 15 34 35 3 25 1 26 -26
19 -39 -11 -54 0 -50 35 2 24 8 29 31 29 29 1 53 27 42 45 -11 18 -93 12 -114
-9z"/>
<path d="M1608 1183 c-15 -4 -16 -8 -7 -25 8 -16 17 -19 40 -14 15 3 31 2 33
-3 3 -5 -10 -11 -30 -14 -20 -3 -42 -11 -50 -18 -15 -12 -19 -56 -6 -75 14
-22 52 -26 77 -10 14 9 25 12 25 6 0 -5 11 -10 25 -10 24 0 25 2 25 63 0 83
-17 107 -73 106 -23 -1 -50 -3 -59 -6z m70 -105 c-7 -19 -38 -22 -38 -4 0 10
9 16 21 16 12 0 19 -5 17 -12z"/>
<path d="M200 1131 c0 -27 4 -61 10 -75 11 -30 49 -42 80 -26 16 9 25 9 36 -1
25 -21 35 4 32 77 -3 63 -5 69 -25 72 -21 3 -23 -1 -23 -45 0 -56 -10 -76 -36
-71 -16 3 -20 14 -22 61 -3 53 -5 57 -27 57 -23 0 -25 -4 -25 -49z"/>
<path d="M1280 907 c0 -41 -3 -76 -6 -80 -3 -3 -16 3 -28 14 -18 17 -21 18
-24 5 -2 -9 6 -29 18 -45 11 -17 27 -46 35 -65 14 -32 19 -36 55 -37 22 -1 45
-2 51 -3 18 -2 50 93 47 137 -3 44 -27 64 -29 25 -1 -19 -3 -18 -8 7 -7 35
-23 36 -33 3 -5 -20 -6 -18 -7 10 -1 43 -31 45 -31 2 0 -16 -5 -30 -11 -30 -8
0 -10 19 -5 65 5 55 4 65 -9 65 -12 0 -15 -14 -15 -73z"/>
</g>
</svg>
